<svg xmlns="http://www.w3.org/2000/svg" width="430" height="1670" viewBox="0 0 430 1670" role="img" aria-labelledby="title desc">
<title id="title">Project Tracker — mobile profile update</title>
<desc id="desc">Single-column mobile account profile editor. Avatar, labeled personal fields, timezone and notification preferences lead to save and cancel actions. Bottom navigation indicates the current profile section.</desc>
<style>text{font-family:"Helvetica Neue",Helvetica,Arial,sans-serif;fill:#0A0A0A}.display{font-weight:400;letter-spacing:-.06em}.label{font-weight:600;letter-spacing:.08em}.body{font-weight:400;letter-spacing:-.02em}</style>
<rect x="0" y="0" width="430" height="1670" fill="#0A0A0A"/>
<rect x="4" y="12" width="2" height="1646" fill="#FCFCFA"/>
<rect x="9" y="12" width="3" height="174" fill="#FCFCFA"/>
<rect x="14" y="12" width="2" height="1646" fill="#FCFCFA"/>
<rect x="9" y="340" width="3" height="1316" fill="#FCFCFA"/>
<rect x="18" y="10" width="402" height="1650" fill="#FCFCFA"/>
<text x="40" y="43" font-size="13" class="label" text-anchor="start" style="fill:#0A0A0A">PROJECT TRACKER</text>
<text x="398" y="43" font-size="13" class="label" text-anchor="end" style="fill:#0A0A0A">BM</text>
<line x1="40" y1="61" x2="398" y2="61" stroke="#0A0A0A" stroke-width="2"/>
<text x="40" y="98" font-size="13" class="label" text-anchor="start" style="fill:#0A0A0A">← TODAY</text>
<text x="38" y="165" font-size="60" class="display" text-anchor="start" style="fill:#0A0A0A">PROFILE.</text>
<text x="40" y="201" font-size="13" class="label" text-anchor="start" style="fill:#0A0A0A">ACCOUNT / YOUR DETAILS</text>
<rect x="40" y="224" width="358" height="16" fill="#0A0A0A"/>
<rect x="40" y="270" width="90" height="90" fill="#BAEAF3"/>
<text x="85" y="332" font-size="46" class="display" text-anchor="middle" style="fill:#0A0A0A">BM</text>
<text x="150" y="302" font-size="26" class="body" text-anchor="start" style="fill:#0A0A0A">Ben Morgan</text>
<rect x="150" y="318" width="248" height="48" fill="#FCFCFA" stroke="#0A0A0A" stroke-width="1.5"/>
<text x="274.0" y="347.0" font-size="12" class="label" text-anchor="middle" style="fill:#0A0A0A">EDIT AVATAR ↗</text>
<text x="40" y="416" font-size="13" class="label" text-anchor="start" style="fill:#0A0A0A">01 / PERSONAL DETAILS</text>
<text x="40" y="458" font-size="14" class="label" text-anchor="start" style="fill:#0A0A0A">FIRST NAME *</text>
<rect x="40" y="472" width="358" height="56" fill="#FCFCFA" stroke="#0A0A0A" stroke-width="1.5"/>
<text x="56" y="506.0" font-size="19" class="body" text-anchor="start" style="fill:#0A0A0A">Ben</text>
<text x="40" y="574" font-size="14" class="label" text-anchor="start" style="fill:#0A0A0A">LAST NAME *</text>
<rect x="40" y="588" width="358" height="56" fill="#FCFCFA" stroke="#0A0A0A" stroke-width="1.5"/>
<text x="56" y="622.0" font-size="19" class="body" text-anchor="start" style="fill:#0A0A0A">Morgan</text>
<text x="40" y="690" font-size="14" class="label" text-anchor="start" style="fill:#0A0A0A">EMAIL ADDRESS *</text>
<rect x="40" y="704" width="358" height="56" fill="#FCFCFA" stroke="#0A0A0A" stroke-width="1.5"/>
<text x="56" y="738.0" font-size="19" class="body" text-anchor="start" style="fill:#0A0A0A">ben@example.com</text>
<text x="40" y="788" font-size="16" class="body" text-anchor="start" style="fill:#595955">Used for sign-in and account updates.</text>
<text x="40" y="834" font-size="14" class="label" text-anchor="start" style="fill:#0A0A0A">BIO</text>
<rect x="40" y="848" width="358" height="90" fill="#FCFCFA" stroke="#0A0A0A" stroke-width="1.5"/>
<text x="56" y="880" font-size="19" class="body" text-anchor="start" style="fill:#0A0A0A">Building useful things,</text>
<text x="56" y="906" font-size="18" class="body" text-anchor="start" style="fill:#0A0A0A">one small task at a time.</text>
<text x="40" y="978" font-size="13" class="label" text-anchor="start" style="fill:#0A0A0A">02 / PREFERENCES</text>
<line x1="40" y1="996" x2="398" y2="996" stroke="#0A0A0A" stroke-width="2"/>
<text x="40" y="1038" font-size="14" class="label" text-anchor="start" style="fill:#0A0A0A">TIMEZONE</text>
<rect x="40" y="1052" width="358" height="56" fill="#FCFCFA" stroke="#0A0A0A" stroke-width="1.5"/>
<text x="56" y="1086.0" font-size="19" class="body" text-anchor="start" style="fill:#0A0A0A">Australia / Melbourne</text>
<path d="M 366 1077.0 l 7 7 l 7 -7" fill="none" stroke="#0A0A0A" stroke-width="2" stroke-linecap="square" stroke-linejoin="miter"/>
<text x="40" y="1154" font-size="14" class="label" text-anchor="start" style="fill:#0A0A0A">WEEK STARTS ON</text>
<rect x="40" y="1168" width="358" height="56" fill="#FCFCFA" stroke="#0A0A0A" stroke-width="1.5"/>
<text x="56" y="1202.0" font-size="19" class="body" text-anchor="start" style="fill:#0A0A0A">Monday</text>
<path d="M 366 1193.0 l 7 7 l 7 -7" fill="none" stroke="#0A0A0A" stroke-width="2" stroke-linecap="square" stroke-linejoin="miter"/>
<rect x="40" y="1265" width="22" height="22" fill="#0A0A0A" stroke="#0A0A0A" stroke-width="1.5"/>
<path d="M 45 1276 l 5 5 l 8 -10" fill="none" stroke="#FCFCFA" stroke-width="2" stroke-linecap="square" stroke-linejoin="miter"/>
<text x="76" y="1281" font-size="18" class="body" text-anchor="start" style="fill:#0A0A0A">Task assignment emails</text>
<rect x="40" y="1320" width="22" height="22" fill="#0A0A0A" stroke="#0A0A0A" stroke-width="1.5"/>
<path d="M 45 1331 l 5 5 l 8 -10" fill="none" stroke="#FCFCFA" stroke-width="2" stroke-linecap="square" stroke-linejoin="miter"/>
<text x="76" y="1336" font-size="18" class="body" text-anchor="start" style="fill:#0A0A0A">Daily deadline summary</text>
<rect x="40" y="1390" width="358" height="60" fill="#DFFF00" stroke="#0A0A0A" stroke-width="1.5"/>
<text x="219.0" y="1425.0" font-size="14" class="label" text-anchor="middle" style="fill:#0A0A0A">SAVE CHANGES →</text>
<rect x="40" y="1466" width="358" height="56" fill="#FCFCFA" stroke="#0A0A0A" stroke-width="1.5"/>
<text x="219.0" y="1499.0" font-size="14" class="label" text-anchor="middle" style="fill:#0A0A0A">CANCEL</text>
<rect x="18" y="1568" width="402" height="92" fill="#FCFCFA"/>
<line x1="40" y1="1568" x2="398" y2="1568" stroke="#0A0A0A" stroke-width="2"/>
<text x="84.75" y="1613" font-size="11.5" class="label" text-anchor="middle" style="fill:#0A0A0A">TODAY</text>
<text x="174.25" y="1613" font-size="11.5" class="label" text-anchor="middle" style="fill:#0A0A0A">PROJECTS</text>
<text x="263.75" y="1613" font-size="11.5" class="label" text-anchor="middle" style="fill:#0A0A0A">TASKS</text>
<rect x="308.5" y="1580" width="89.5" height="56" fill="#0A0A0A"/>
<text x="353.25" y="1613" font-size="11.5" class="label" text-anchor="middle" style="fill:#FCFCFA">PROFILE</text>
</svg>
